<svg viewBox="0 0 800 800" xmlns="http://www.w3.org/2000/svg" xmlns:xlink="http://www.w3.org/1999/xlink"><filter id="a" height="400%" width="400%" x="-100%" y="-100%"><feGaussianBlur in="SourceGraphic" stdDeviation="1"/></filter><filter id="b" height="400%" width="400%" x="-100%" y="-100%"><feGaussianBlur in="SourceGraphic" stdDeviation="2"/></filter><filter id="c" height="400%" width="400%" x="-100%" y="-100%"><feGaussianBlur in="SourceGraphic" stdDeviation="4"/></filter><filter id="d" height="400%" width="400%" x="-100%" y="-100%"><feGaussianBlur in="SourceGraphic" stdDeviation="12"/></filter><symbol id="e" viewBox="0 0 194 167"><path d="m97 0 96.129 166.5h-192.258z"/></symbol><symbol id="f" viewBox="0 0 145 145"><circle cx="72.5" cy="72.5" r="72.5"/></symbol><symbol id="g" viewBox="0 0 145 145"><circle cx="72.5" cy="72.5" fill="none" r="61.5" stroke-width="22"/></symbol><symbol id="h" viewBox="0 0 194 167"><path d="m10.398 161 86.602-150 86.603 150h-173.206z" stroke-width="11"/></symbol><symbol id="i" viewBox="0 0 159 159"><path d="m11 11h137v137h-137z" stroke-width="22"/></symbol><use fill="#c1ffd7" filter="url(#b)" opacity=".407865" transform="matrix(.98417842 -.17718022 .17718022 .98417842 52.73962 -46.61835)" width="32.179097" xlink:href="#f"/><use fill="#c1ffd7" filter="url(#a)" opacity=".729496" transform="matrix(.9996088 -.0279686 .0279686 .9996088 351.683455 119.19239)" width="20.515318" xlink:href="#e"/><use fill="none" filter="url(#b)" opacity=".336616" stroke="#c1ffd7" transform="matrix(.86966499 -.49364239 .49364239 .86966499 343.630482 314.291583)" width="42.093299" xlink:href="#h"/><use fill="none" filter="url(#c)" opacity=".219293" stroke="#406343" transform="matrix(1.1525754 .48380776 -.48380776 1.1525754 578.151546 278.747451)" width="44.399847" xlink:href="#h"/><use fill="none" filter="url(#a)" opacity=".659998" stroke="#406343" transform="matrix(.95745988 -.28856643 .28856643 .95745988 405.754068 -58.675206)" width="20.931505" xlink:href="#g"/><use fill="#406343" filter="url(#a)" opacity=".606542" transform="matrix(.75356106 .65737792 -.65737792 .75356106 645.987955 -85.936404)" width="23.324273" xlink:href="#e"/><use fill="none" opacity=".970021" stroke="#fee440" transform="matrix(.99676675 -.08034957 .08034957 .99676675 347.078982 2.683649)" width="14.670948" xlink:href="#h"/><use fill="#406343" filter="url(#a)" opacity=".718081" transform="matrix(.99139043 .130939 -.130939 .99139043 412.56783 -120.780622)" width="17.997376" xlink:href="#f"/><g fill="none"><use opacity=".809362" stroke="#406343" transform="matrix(.94275449 .33348758 -.33348758 .94275449 532.96333 -65.552893)" width="16.654948" xlink:href="#h"/><use filter="url(#a)" opacity=".734302" stroke="#fee440" transform="matrix(.98233138 .18714982 -.18714982 .98233138 500.340595 119.414443)" width="20.060266" xlink:href="#i"/><use opacity=".815956" stroke="#406343" transform="matrix(.82769758 .56117441 -.56117441 .82769758 699.474281 51.541695)" width="16.903823" xlink:href="#h"/><use filter="url(#a)" opacity=".617047" stroke="#406343" transform="matrix(.84185013 .53971137 -.53971137 .84185013 452.377692 136.569842)" width="26.358455" xlink:href="#i"/><use filter="url(#b)" opacity=".408952" stroke="#fee440" transform="matrix(.99991601 .01296052 -.01296052 .99991601 299.337077 249.670817)" width="29.183261" xlink:href="#g"/><use filter="url(#c)" opacity=".231941" stroke="#406343" transform="matrix(1.10413024 .58600035 -.58600035 1.10413024 902.310427 -245.605836)" width="32.215473" xlink:href="#g"/><use filter="url(#b)" opacity=".391359" stroke="#fee440" transform="matrix(.99683384 .07951282 -.07951282 .99683384 254.033248 -224.97382)" width="40.814538" xlink:href="#h"/><use opacity=".780341" stroke="#406343" transform="matrix(.9067097 .42175529 -.42175529 .9067097 463.20737 33.513805)" width="14.669977" xlink:href="#i"/><use filter="url(#d)" opacity=".058414" stroke="#c1ffd7" transform="matrix(1.74517435 .12987101 -.12987101 1.74517435 182.158434 53.271781)" width="44.597911" xlink:href="#h"/><use filter="url(#b)" opacity=".379883" stroke="#406343" transform="matrix(.84043774 .54190812 -.54190812 .84043774 803.426911 -138.925708)" width="34.499882" xlink:href="#g"/><use filter="url(#a)" opacity=".712972" stroke="#406343" transform="matrix(.9272993 .37432074 -.37432074 .9272993 577.015256 -98.830005)" width="26.490143" xlink:href="#g"/><use filter="url(#c)" opacity=".179997" stroke="#406343" transform="matrix(.9947852 -.75690317 .75690317 .9947852 -10.698906 372.253347)" width="34.108737" xlink:href="#h"/><use filter="url(#c)" opacity=".198776" stroke="#406343" transform="matrix(1.24931584 -.04135124 .04135124 1.24931584 10.081321 -204.980822)" width="46.14598" xlink:href="#i"/><use filter="url(#c)" opacity=".261422" stroke="#406343" transform="matrix(1.08572644 -.6194337 .6194337 1.08572644 392.158592 182.64715)" width="41.039948" xlink:href="#i"/><use filter="url(#b)" opacity=".503625" stroke="#406343" transform="matrix(.89116172 .45368578 -.45368578 .89116172 777.112827 114.572221)" width="30.679744" xlink:href="#g"/><use filter="url(#c)" opacity=".149181" stroke="#406343" transform="matrix(1.24234826 -.1380971 .1380971 1.24234826 681.029506 44.799015)" width="32.224831" xlink:href="#h"/></g><use fill="#406343" filter="url(#b)" opacity=".518569" transform="matrix(.72519992 -.68853837 .68853837 .72519992 289.713389 -13.967402)" width="20.554256" xlink:href="#e"/><use fill="none" filter="url(#a)" opacity=".744982" stroke="#c1ffd7" transform="matrix(.7370398 -.67584934 .67584934 .7370398 49.012707 23.638048)" width="20.37646" xlink:href="#i"/><use fill="none" filter="url(#b)" opacity=".473504" stroke="#c1ffd7" transform="matrix(.87132915 .49069901 -.49069901 .87132915 822.898817 46.845737)" width="23.988348" xlink:href="#h"/><use fill="none" filter="url(#a)" opacity=".623929" stroke="#406343" transform="matrix(.81491778 -.57957658 .57957658 .81491778 326.366994 86.93205)" width="26.891848" xlink:href="#i"/><use fill="#406343" filter="url(#c)" opacity=".316294" transform="matrix(1.21345868 .30003007 -.30003007 1.21345868 195.292749 -37.436634)" width="35.734702" xlink:href="#e"/><use fill="none" filter="url(#d)" opacity=".039182" stroke="#c1ffd7" transform="matrix(1.70597947 .39004366 -.39004366 1.70597947 867.582237 -35.836775)" width="43.970698" xlink:href="#i"/><use fill="none" filter="url(#d)" opacity="0" stroke="#406343" transform="matrix(1.68510384 -.47214939 .47214939 1.68510384 -171.146033 69.064257)" width="37.380448" xlink:href="#h"/><use fill="none" filter="url(#b)" opacity=".406506" stroke="#fee440" transform="matrix(.91963128 -.39278278 .39278278 .91963128 351.587668 -195.408315)" width="39.647471" xlink:href="#h"/><use fill="none" filter="url(#a)" opacity=".69738" stroke="#fee440" transform="matrix(.84219334 .53917565 -.53917565 .84219334 483.808419 -8.598477)" width="27.930272" xlink:href="#g"/><use fill="none" filter="url(#b)" opacity=".523861" stroke="#c1ffd7" transform="matrix(.98993445 .14152661 -.14152661 .98993445 301.69373 163.004996)" width="27.120968" xlink:href="#i"/><use fill="#406343" opacity=".834451" transform="matrix(.98874811 .14959002 -.14959002 .98874811 450.693761 77.71539)" width="17.416744" xlink:href="#e"/><use fill="#fee440" filter="url(#b)" opacity=".352612" transform="matrix(.93418968 .35677674 -.35677674 .93418968 589.332144 303.17349)" width="39.740709" xlink:href="#f"/><use fill="none" filter="url(#a)" opacity=".684235" stroke="#406343" transform="matrix(.99522869 -.09756979 .09756979 .99522869 257.549048 112.753612)" width="26.726321" xlink:href="#h"/><use fill="none" opacity=".929569" stroke="#fee440" transform="matrix(.92140252 .38860956 -.38860956 .92140252 559.105854 57.585964)" width="17.22953" xlink:href="#i"/><use fill="none" filter="url(#b)" opacity=".372432" stroke="#c1ffd7" transform="matrix(.99986319 .0165411 -.0165411 .99986319 649.643819 -104.659197)" width="39.17538" xlink:href="#h"/><use fill="none" filter="url(#c)" opacity=".162443" stroke="#fee440" transform="matrix(1.24430603 .1191743 -.1191743 1.24430603 783.630102 -215.903472)" width="36.392128" xlink:href="#i"/><use fill="none" opacity=".810955" stroke="#c1ffd7" transform="matrix(.96255359 -.27109147 .27109147 .96255359 233.00268 87.995732)" width="22.004814" xlink:href="#h"/><use fill="none" filter="url(#a)" opacity=".603567" stroke="#406343" transform="matrix(.85634984 .51639612 -.51639612 .85634984 493.820997 -100.558646)" width="34.541189" xlink:href="#i"/><use fill="none" filter="url(#c)" opacity=".288277" stroke="#fee440" transform="matrix(.992914 -.75935616 .75935616 .992914 -7.929656 -289.851004)" width="44.475204" xlink:href="#g"/><use fill="#fee440" filter="url(#c)" opacity=".24475" transform="matrix(.89497166 .87265442 -.87265442 .89497166 576.339127 328.573745)" width="32.824969" xlink:href="#f"/><use fill="none" filter="url(#a)" opacity=".626314" stroke="#406343" transform="matrix(.86771954 .49705413 -.49705413 .86771954 742.75285 120.228956)" width="18.586556" xlink:href="#g"/><use fill="none" filter="url(#d)" opacity=".096579" stroke="#fee440" transform="matrix(1.58640192 -.73880238 .73880238 1.58640192 268.290649 -587.922669)" width="25.649937" xlink:href="#h"/><use fill="none" filter="url(#a)" opacity=".756826" stroke="#406343" transform="matrix(.87708469 -.48033577 .48033577 .87708469 101.880546 108.080925)" width="23.662621" xlink:href="#g"/><use fill="#406343" opacity=".867789" transform="matrix(.87611411 -.4821038 .4821038 .87611411 142.111596 73.399681)" width="19.844759" xlink:href="#e"/><use fill="none" filter="url(#a)" opacity=".608391" stroke="#c1ffd7" transform="matrix(.97833446 -.20703063 .20703063 .97833446 409.467108 -129.610684)" width="27.197177" xlink:href="#i"/><use fill="none" filter="url(#b)" opacity=".364356" stroke="#406343" transform="matrix(.77338586 -.63393557 .63393557 .77338586 -105.752194 -55.567341)" width="31.031027" xlink:href="#h"/><use fill="#406343" opacity=".95436" transform="matrix(.7363672 -.6765821 .6765821 .7363672 142.677939 100.94457)" width="13.766919" xlink:href="#f"/><use fill="none" filter="url(#c)" opacity=".191815" stroke="#fee440" transform="matrix(.94755516 -.81525408 .81525408 .94755516 -303.319972 41.099673)" width="28.772648" xlink:href="#g"/><use fill="#c1ffd7" filter="url(#a)" opacity=".674075" transform="matrix(.9545516 -.29804572 .29804572 .9545516 123.832856 36.586593)" width="23.158486" xlink:href="#e"/><use fill="none" filter="url(#c)" opacity=".320331" stroke="#406343" transform="matrix(.98493154 -.76968166 .76968166 .98493154 379.977235 -4.016805)" width="34.731367" xlink:href="#g"/><use fill="#406343" opacity=".893892" transform="matrix(.99998747 -.00500662 .00500662 .99998747 435.057448 15.506114)" width="16.247603" xlink:href="#e"/><use fill="none" filter="url(#d)" opacity="0" stroke="#fee440" transform="matrix(1.71538675 -.34633553 .34633553 1.71538675 564.514199 75.859944)" width="39.457417" xlink:href="#g"/><use fill="none" filter="url(#b)" opacity=".458852" stroke="#406343" transform="matrix(.93249879 .36117309 -.36117309 .93249879 314.054644 133.786648)" width="30.807629" xlink:href="#i"/><use fill="none" filter="url(#a)" opacity=".556066" stroke="#406343" transform="matrix(.95947497 .28179385 -.28179385 .95947497 556.351398 -179.135111)" width="34.924645" xlink:href="#g"/><use fill="none" filter="url(#b)" opacity=".458904" stroke="#406343" transform="matrix(.76135032 -.64834072 .64834072 .76135032 309.952476 267.948472)" width="34.266209" xlink:href="#i"/><use fill="none" filter="url(#b)" opacity=".415801" stroke="#406343" transform="matrix(.99757482 -.06960232 .06960232 .99757482 369.885631 -260.069332)" width="37.97258" xlink:href="#g"/><use fill="none" filter="url(#a)" opacity=".58979" stroke="#fee440" transform="matrix(.70949341 .70471207 -.70471207 .70949341 491.440544 63.27919)" width="30.301329" xlink:href="#i"/><use fill="#fee440" filter="url(#c)" opacity=".289631" transform="matrix(1.16565755 .45137841 -.45137841 1.16565755 277.424151 74.028748)" width="33.796075" xlink:href="#e"/><use fill="#fee440" filter="url(#c)" opacity=".188571" transform="matrix(1.12924975 .53599907 -.53599907 1.12924975 314.17233 -296.522836)" width="36.729381" xlink:href="#f"/><use fill="none" filter="url(#a)" opacity=".627714" stroke="#406343" transform="matrix(.73865705 .67408142 -.67408142 .73865705 787.306453 210.474189)" width="18.389072" xlink:href="#i"/><use fill="none" filter="url(#d)" opacity=".106314" stroke="#fee440" transform="matrix(1.74995475 .01258528 -.01258528 1.74995475 4.506881 -130.305984)" width="41.185051" xlink:href="#g"/><use fill="#406343" filter="url(#c)" opacity=".188444" transform="matrix(1.1240555 -.54680823 .54680823 1.1240555 529.830505 -21.591473)" width="28.62329" xlink:href="#f"/><use fill="none" filter="url(#a)" opacity=".721264" stroke="#406343" transform="matrix(.94652487 -.32263086 .32263086 .94652487 384.607028 -4.04658)" width="18.018733" xlink:href="#i"/><use fill="#406343" filter="url(#b)" opacity=".504834" transform="matrix(.83734299 .54667789 -.54667789 .83734299 686.5599 266.14739)" width="26.56631" xlink:href="#f"/><use fill="none" filter="url(#b)" opacity=".540757" stroke="#fee440" transform="matrix(.9564353 -.29194437 .29194437 .9564353 96.510161 -97.379844)" width="38.166585" xlink:href="#h"/><use fill="#c1ffd7" opacity=".911805" transform="matrix(.94791504 -.31852327 .31852327 .94791504 266.135994 -16.27515)" width="15.970812" xlink:href="#e"/><use fill="#406343" filter="url(#c)" opacity=".196696" transform="matrix(.96238396 -.79769487 .79769487 .96238396 64.282561 -331.807779)" width="36.570435" xlink:href="#e"/><use fill="#c1ffd7" opacity=".814153" transform="matrix(.95204142 -.30596919 .30596919 .95204142 347.023384 57.169111)" width="12.72336" xlink:href="#f"/><use fill="none" filter="url(#c)" opacity=".117874" stroke="#406343" transform="matrix(.97059035 .78768926 -.78768926 .97059035 548.178368 -363.131189)" width="23.849131" xlink:href="#h"/><use fill="none" filter="url(#c)" opacity=".144416" stroke="#c1ffd7" transform="matrix(.88412265 .88364424 -.88364424 .88412265 447.779741 283.22198)" width="39.652316" xlink:href="#h"/><use fill="none" filter="url(#d)" opacity=".038054" stroke="#fee440" transform="matrix(1.69959979 -.41696588 .41696588 1.69959979 556.802975 -518.958973)" width="37.575901" xlink:href="#g"/><use fill="none" filter="url(#d)" opacity=".060602" stroke="#406343" transform="matrix(1.48019107 .93356006 -.93356006 1.48019107 382.476349 -428.909822)" width="39.274882" xlink:href="#g"/><use fill="none" opacity=".839586" stroke="#406343" transform="matrix(.78514957 .61930618 -.61930618 .78514957 607.899234 14.622582)" width="20.551746" xlink:href="#h"/><use fill="none" filter="url(#c)" opacity=".243477" stroke="#fee440" transform="matrix(1.18561747 -.39599394 .39599394 1.18561747 317.880258 -394.965599)" width="31.420178" xlink:href="#g"/><use fill="#c1ffd7" filter="url(#c)" opacity=".150874" transform="matrix(.88657852 .88118019 -.88118019 .88657852 515.626387 -280.080284)" width="33.084066" xlink:href="#f"/><use fill="none" filter="url(#a)" opacity=".731164" stroke="#406343" transform="matrix(.93275135 -.36052033 .36052033 .93275135 362.327151 62.029604)" width="22.233372" xlink:href="#i"/><use fill="#406343" filter="url(#b)" opacity=".487736" transform="matrix(.83790148 -.54582149 .54582149 .83790148 101.562913 -146.816864)" width="33.531898" xlink:href="#e"/><use fill="none" filter="url(#d)" opacity="0" stroke="#fee440" transform="matrix(1.49219328 -.91425337 .91425337 1.49219328 339.836737 -533.803802)" width="32.434805" xlink:href="#i"/><use fill="none" opacity=".904528" stroke="#fee440" transform="matrix(.95806697 .28654438 -.28654438 .95806697 485.852297 51.356474)" width="13.440331" xlink:href="#h"/><use fill="none" filter="url(#a)" opacity=".622425" stroke="#fee440" transform="matrix(.99996783 -.00802125 .00802125 .99996783 395.1866 169.299916)" width="26.196931" xlink:href="#h"/><use fill="#406343" filter="url(#d)" opacity=".104485" transform="matrix(1.3983245 1.0522303 -1.0522303 1.3983245 1024.753008 146.84038)" width="42.393218" xlink:href="#e"/><use fill="none" filter="url(#b)" opacity=".454425" stroke="#406343" transform="matrix(.95640168 .2920545 -.2920545 .95640168 488.596786 257.947791)" width="31.892243" xlink:href="#i"/><use fill="none" filter="url(#c)" opacity=".155589" stroke="#406343" transform="matrix(.95724909 -.8038496 .8038496 .95724909 194.3736 385.861148)" width="28.888054" xlink:href="#i"/><use fill="#406343" filter="url(#b)" opacity=".347098" transform="matrix(.95022592 -.3115617 .3115617 .95022592 56.019684 242.669486)" width="42.735375" xlink:href="#f"/><use fill="none" filter="url(#b)" opacity=".508725" stroke="#406343" transform="matrix(.84552091 .53394231 -.53394231 .84552091 379.623311 79.241922)" width="34.264513" xlink:href="#i"/><use fill="#c1ffd7" filter="url(#d)" opacity="0" transform="matrix(1.54935874 -.81362613 .81362613 1.54935874 -291.667635 -548.2515)" width="41.929049" xlink:href="#f"/><use fill="none" filter="url(#c)" opacity=".182764" stroke="#c1ffd7" transform="matrix(1.17241201 .43353211 -.43353211 1.17241201 778.916666 -365.266791)" width="44.052732" xlink:href="#h"/><use fill="none" filter="url(#a)" opacity=".746292" stroke="#c1ffd7" transform="matrix(.91509264 -.40324367 .40324367 .91509264 310.587874 119.685584)" width="14.848285" xlink:href="#g"/><use fill="none" filter="url(#a)" opacity=".759183" stroke="#c1ffd7" transform="matrix(.99857356 .05339322 -.05339322 .99857356 488.493703 -75.276838)" width="21.68367" xlink:href="#g"/><use fill="#fee440" filter="url(#b)" opacity=".544097" transform="matrix(.99254885 .12184736 -.12184736 .99254885 631.134786 -60.538488)" width="26.598068" xlink:href="#f"/><use fill="none" opacity=".819611" stroke="#fee440" transform="matrix(.99329232 -.11563029 .11563029 .99329232 271.366886 -31.165748)" width="18.022178" xlink:href="#h"/><use fill="#406343" opacity=".843155" transform="matrix(.94067574 .33930686 -.33930686 .94067574 565.768617 80.659422)" width="16.25862" xlink:href="#e"/><use fill="none" opacity=".877235" stroke="#c1ffd7" transform="matrix(.99999193 -.00401855 .00401855 .99999193 442.122494 -24.914325)" width="11.128465" xlink:href="#g"/><use fill="none" filter="url(#b)" opacity=".342638" stroke="#fee440" transform="matrix(.84093474 -.54113655 .54113655 .84093474 449.943944 164.490552)" width="35.676553" xlink:href="#i"/><use fill="none" filter="url(#a)" opacity=".588668" stroke="#fee440" transform="matrix(.81064328 .58554033 -.58554033 .81064328 558.252303 241.254241)" width="26.197518" xlink:href="#i"/><use fill="none" opacity=".843406" stroke="#406343" transform="matrix(.92114312 -.38922404 .38922404 .92114312 276.86382 -24.774938)" width="13.294005" xlink:href="#g"/><use fill="none" filter="url(#a)" opacity=".605666" stroke="#fee440" transform="matrix(.98481198 .17362419 -.17362419 .98481198 550.12599 155.795737)" width="23.053137" xlink:href="#i"/><use fill="none" opacity=".905013" stroke="#406343" transform="matrix(.9598356 .28056304 -.28056304 .9598356 469.152288 -7.207301)" width="12.75287" xlink:href="#i"/></svg>